<svg width="32" height="32" viewBox="0 0 32 32" fill="none" xmlns="http://www.w3.org/2000/svg">
<path d="M28.0002 10.6667C26.0668 10.6667 24.9868 12.5867 25.4268 14.0133L20.6935 18.76C20.2935 18.64 19.7068 18.64 19.3068 18.76L15.9068 15.36C16.3602 13.9333 15.2802 12 13.3335 12C11.4002 12 10.3068 13.92 10.7602 15.36L4.68016 21.4267C3.2535 20.9867 1.3335 22.0667 1.3335 24C1.3335 25.4667 2.5335 26.6667 4.00016 26.6667C5.9335 26.6667 7.0135 24.7467 6.5735 23.32L12.6402 17.24C13.0402 17.36 13.6268 17.36 14.0268 17.24L17.4268 20.64C16.9735 22.0667 18.0535 24 20.0002 24C21.9335 24 23.0268 22.08 22.5735 20.64L27.3202 15.9067C28.7468 16.3467 30.6668 15.2667 30.6668 13.3333C30.6668 11.8667 29.4668 10.6667 28.0002 10.6667Z" fill="#F1F5F9"/>
<path d="M20 12L21.2533 9.24L24 8L21.2533 6.76L20 4L18.7733 6.76L16 8L18.7733 9.24L20 12Z" fill="#F1F5F9"/>
<path d="M4.66683 14.6667L5.3335 12L8.00016 11.3333L5.3335 10.6667L4.66683 8L4.00016 10.6667L1.3335 11.3333L4.00016 12L4.66683 14.6667Z" fill="#F1F5F9"/>
</svg>
