<svg width="88" height="24" viewBox="0 0 88 24" fill="none" xmlns="http://www.w3.org/2000/svg">
<path d="M8 7C8 4.79086 9.79086 3 12 3C14.2091 3 16 4.79086 16 7C16 9.20912 14.2091 11 12 11C9.79086 11 8 9.20912 8 7ZM12 9.4C13.3255 9.4 14.4 8.32548 14.4 7C14.4 5.67452 13.3255 4.6 12 4.6C10.6745 4.6 9.6 5.67452 9.6 7C9.6 8.32548 10.6745 9.4 12 9.4Z" fill="#86EFAC"/>
<path d="M15.707 17.414C15.8945 17.6015 16.1488 17.7069 16.414 17.707H17C17.2652 17.7069 17.5195 17.6015 17.707 17.414L22.414 12.707L24.707 15V9H18.707L21 11.293L16.707 15.586L13.707 12.586C13.5195 12.3985 13.2652 12.2931 13 12.293H12.414C12.1488 12.2931 11.8945 12.3985 11.707 12.586L5 19.293L6.414 20.707L12.707 14.414L15.707 17.414Z" fill="#86EFAC"/>
<path d="M38.918 9.226L36.974 9.838C36.89 9.346 36.644 8.896 36.236 8.488C35.828 8.08 35.24 7.876 34.472 7.876C33.836 7.876 33.308 8.056 32.888 8.416C32.48 8.776 32.276 9.208 32.276 9.712C32.276 10.588 32.774 11.134 33.77 11.35L35.606 11.728C36.71 11.944 37.562 12.382 38.162 13.042C38.762 13.702 39.062 14.488 39.062 15.4C39.062 16.456 38.654 17.368 37.838 18.136C37.034 18.892 35.936 19.27 34.544 19.27C33.044 19.27 31.874 18.88 31.034 18.1C30.194 17.308 29.72 16.39 29.612 15.346L31.628 14.77C31.7 15.49 31.988 16.096 32.492 16.588C32.996 17.08 33.68 17.326 34.544 17.326C35.288 17.326 35.858 17.164 36.254 16.84C36.662 16.504 36.866 16.078 36.866 15.562C36.866 15.142 36.716 14.782 36.416 14.482C36.116 14.17 35.696 13.954 35.156 13.834L33.356 13.456C32.36 13.252 31.568 12.838 30.98 12.214C30.404 11.59 30.116 10.81 30.116 9.874C30.116 8.806 30.542 7.888 31.394 7.12C32.246 6.352 33.266 5.968 34.454 5.968C35.81 5.968 36.848 6.298 37.568 6.958C38.288 7.606 38.738 8.362 38.918 9.226ZM43.7362 7.552V10.234H45.5542V12.088H43.7362V16.156C43.7362 16.54 43.8262 16.822 44.0062 17.002C44.1862 17.17 44.4682 17.254 44.8522 17.254C45.0922 17.254 45.3322 17.23 45.5722 17.182V18.91C45.2602 19.042 44.8342 19.108 44.2942 19.108C43.4782 19.108 42.8362 18.88 42.3682 18.424C41.9002 17.956 41.6662 17.314 41.6662 16.498V12.088H40.0462V10.234H40.4962C40.9402 10.234 41.2762 10.108 41.5042 9.856C41.7322 9.604 41.8462 9.274 41.8462 8.866V7.552H43.7362ZM49.7177 16.66C50.1977 17.152 50.7797 17.398 51.4637 17.398C52.1477 17.398 52.7237 17.152 53.1917 16.66C53.6717 16.168 53.9117 15.484 53.9117 14.608C53.9117 13.744 53.6717 13.072 53.1917 12.592C52.7237 12.1 52.1477 11.854 51.4637 11.854C50.7797 11.854 50.1977 12.1 49.7177 12.592C49.2497 13.072 49.0157 13.744 49.0157 14.608C49.0157 15.472 49.2497 16.156 49.7177 16.66ZM51.4637 9.964C52.7837 9.964 53.8697 10.402 54.7217 11.278C55.5857 12.154 56.0177 13.264 56.0177 14.608C56.0177 15.952 55.5857 17.068 54.7217 17.956C53.8697 18.832 52.7837 19.27 51.4637 19.27C50.1557 19.27 49.0697 18.832 48.2057 17.956C47.3537 17.068 46.9277 15.952 46.9277 14.608C46.9277 13.264 47.3537 12.154 48.2057 11.278C49.0697 10.402 50.1557 9.964 51.4637 9.964ZM60.1235 13.942V19H58.0355V10.234H60.0695V11.404C60.3455 10.924 60.7115 10.57 61.1675 10.342C61.6355 10.102 62.1335 9.982 62.6615 9.982C63.6935 9.982 64.4795 10.306 65.0195 10.954C65.5595 11.602 65.8295 12.436 65.8295 13.456V19H63.7415V13.816C63.7415 13.228 63.5975 12.76 63.3095 12.412C63.0215 12.052 62.5655 11.872 61.9415 11.872C61.3655 11.872 60.9155 12.07 60.5915 12.466C60.2795 12.85 60.1235 13.342 60.1235 13.942ZM76.5795 10.234L72.9795 13.942L76.6515 19H74.0955L71.5215 15.418L70.4415 16.552V19H68.3715V5.968H70.4415V13.78L73.8075 10.234H76.5795ZM77.3885 16.624L79.2065 16.12C79.2425 16.54 79.4165 16.894 79.7285 17.182C80.0405 17.47 80.4605 17.614 80.9885 17.614C81.3965 17.614 81.7145 17.518 81.9425 17.326C82.1825 17.134 82.3025 16.894 82.3025 16.606C82.3025 16.102 81.9605 15.778 81.2765 15.634L79.9805 15.346C79.2245 15.178 78.6425 14.866 78.2345 14.41C77.8265 13.954 77.6225 13.414 77.6225 12.79C77.6225 12.022 77.9345 11.362 78.5585 10.81C79.1825 10.246 79.9445 9.964 80.8445 9.964C81.4205 9.964 81.9305 10.048 82.3745 10.216C82.8185 10.384 83.1605 10.606 83.4005 10.882C83.6525 11.146 83.8445 11.404 83.9765 11.656C84.1085 11.908 84.1925 12.16 84.2285 12.412L82.4645 12.916C82.4165 12.58 82.2605 12.28 81.9965 12.016C81.7445 11.74 81.3605 11.602 80.8445 11.602C80.4845 11.602 80.1845 11.704 79.9445 11.908C79.7045 12.1 79.5845 12.334 79.5845 12.61C79.5845 13.102 79.8785 13.408 80.4665 13.528L81.7985 13.798C82.6145 13.978 83.2385 14.302 83.6705 14.77C84.1025 15.238 84.3185 15.802 84.3185 16.462C84.3185 17.194 84.0245 17.848 83.4365 18.424C82.8605 18.988 82.0505 19.27 81.0065 19.27C80.4065 19.27 79.8665 19.18 79.3865 19C78.9185 18.82 78.5465 18.592 78.2705 18.316C78.0065 18.028 77.7965 17.746 77.6405 17.47C77.4965 17.182 77.4125 16.9 77.3885 16.624Z" fill="#86EFAC"/>
</svg>
